<svg width="337" height="62" viewBox="0 0 337 62" fill="none" xmlns="http://www.w3.org/2000/svg">
<rect width="122" height="35" fill="#F00000"/>
<rect x="128" width="35" height="35" rx="10" fill="#F00000"/>
<path d="M172.517 27V9.54545H176.207V16.7472H183.699V9.54545H187.381V27H183.699V19.7898H176.207V27H172.517ZM196.321 27.2557C194.974 27.2557 193.815 26.983 192.844 26.4375C191.878 25.8864 191.134 25.108 190.611 24.1023C190.088 23.0909 189.827 21.8949 189.827 20.5142C189.827 19.1676 190.088 17.9858 190.611 16.9688C191.134 15.9517 191.869 15.1591 192.818 14.5909C193.773 14.0227 194.892 13.7386 196.176 13.7386C197.04 13.7386 197.844 13.8778 198.588 14.1562C199.338 14.429 199.991 14.8409 200.548 15.392C201.111 15.9432 201.548 16.6364 201.861 17.4716C202.173 18.3011 202.33 19.2727 202.33 20.3864V21.3835H191.276V19.1335H198.912C198.912 18.6108 198.798 18.1477 198.571 17.7443C198.344 17.3409 198.028 17.0256 197.625 16.7983C197.227 16.5653 196.764 16.4489 196.236 16.4489C195.685 16.4489 195.196 16.5767 194.77 16.8324C194.349 17.0824 194.02 17.4205 193.781 17.8466C193.543 18.267 193.42 18.7358 193.415 19.2528V21.392C193.415 22.0398 193.534 22.5994 193.773 23.071C194.017 23.5426 194.361 23.9062 194.804 24.1619C195.247 24.4176 195.773 24.5455 196.381 24.5455C196.784 24.5455 197.153 24.4886 197.489 24.375C197.824 24.2614 198.111 24.0909 198.349 23.8636C198.588 23.6364 198.77 23.358 198.895 23.0284L202.253 23.25C202.082 24.0568 201.733 24.7614 201.205 25.3636C200.682 25.9602 200.006 26.4261 199.176 26.7614C198.352 27.0909 197.401 27.2557 196.321 27.2557ZM208.33 9.54545V27H204.699V9.54545H208.33ZM214.869 9.54545V27H211.238V9.54545H214.869ZM223.4 27V9.54545H227.09V16.7472H234.582V9.54545H238.263V27H234.582V19.7898H227.09V27H223.4ZM244.971 27.2472C244.136 27.2472 243.391 27.1023 242.738 26.8125C242.085 26.517 241.567 26.0824 241.187 25.5085C240.812 24.929 240.624 24.2074 240.624 23.3438C240.624 22.6165 240.758 22.0057 241.025 21.5114C241.292 21.017 241.656 20.6193 242.116 20.3182C242.576 20.017 243.099 19.7898 243.684 19.6364C244.275 19.483 244.894 19.375 245.542 19.3125C246.303 19.233 246.917 19.1591 247.383 19.0909C247.849 19.017 248.187 18.9091 248.397 18.767C248.607 18.625 248.712 18.4148 248.712 18.1364V18.0852C248.712 17.5455 248.542 17.1278 248.201 16.8324C247.866 16.5369 247.388 16.3892 246.769 16.3892C246.116 16.3892 245.596 16.5341 245.21 16.8239C244.823 17.108 244.567 17.4659 244.442 17.8977L241.085 17.625C241.255 16.8295 241.59 16.142 242.09 15.5625C242.59 14.9773 243.235 14.5284 244.025 14.2159C244.82 13.8977 245.741 13.7386 246.786 13.7386C247.513 13.7386 248.21 13.8239 248.874 13.9943C249.545 14.1648 250.138 14.429 250.656 14.7869C251.178 15.1449 251.59 15.6051 251.891 16.1676C252.192 16.7244 252.343 17.392 252.343 18.1705V27H248.9V25.1847H248.798C248.587 25.5938 248.306 25.9545 247.954 26.267C247.602 26.5739 247.178 26.8153 246.684 26.9915C246.19 27.1619 245.619 27.2472 244.971 27.2472ZM246.011 24.7415C246.545 24.7415 247.016 24.6364 247.425 24.4261C247.835 24.2102 248.156 23.9205 248.388 23.5568C248.621 23.1932 248.738 22.7812 248.738 22.321V20.9318C248.624 21.0057 248.468 21.0739 248.269 21.1364C248.076 21.1932 247.857 21.2472 247.613 21.2983C247.369 21.3437 247.124 21.3864 246.88 21.4261C246.636 21.4602 246.414 21.4915 246.215 21.5199C245.789 21.5824 245.417 21.6818 245.099 21.8182C244.781 21.9545 244.533 22.1392 244.357 22.3722C244.181 22.5994 244.093 22.8835 244.093 23.2244C244.093 23.7188 244.272 24.0966 244.63 24.358C244.994 24.6136 245.454 24.7415 246.011 24.7415ZM255.16 27V13.9091H258.68V16.1932H258.816C259.055 15.3807 259.455 14.767 260.018 14.3523C260.58 13.9318 261.228 13.7216 261.961 13.7216C262.143 13.7216 262.339 13.733 262.549 13.7557C262.759 13.7784 262.944 13.8097 263.103 13.8494V17.071C262.933 17.0199 262.697 16.9744 262.396 16.9347C262.094 16.8949 261.819 16.875 261.569 16.875C261.035 16.875 260.558 16.9915 260.137 17.2244C259.722 17.4517 259.393 17.7699 259.148 18.179C258.91 18.5881 258.79 19.0597 258.79 19.5938V27H255.16ZM269.195 27.2131C268.2 27.2131 267.3 26.9574 266.493 26.446C265.692 25.929 265.055 25.1705 264.584 24.1705C264.118 23.1648 263.885 21.9318 263.885 20.4716C263.885 18.9716 264.126 17.7244 264.609 16.7301C265.092 15.7301 265.734 14.983 266.536 14.4886C267.342 13.9886 268.226 13.7386 269.186 13.7386C269.919 13.7386 270.53 13.8636 271.018 14.1136C271.513 14.358 271.911 14.6648 272.212 15.0341C272.518 15.3977 272.751 15.7557 272.911 16.108H273.021V9.54545H276.643V27H273.064V24.9034H272.911C272.74 25.267 272.499 25.6278 272.186 25.9858C271.879 26.3381 271.479 26.6307 270.984 26.8636C270.496 27.0966 269.899 27.2131 269.195 27.2131ZM270.345 24.3239C270.93 24.3239 271.425 24.1648 271.828 23.8466C272.237 23.5227 272.55 23.071 272.766 22.4915C272.987 21.9119 273.098 21.233 273.098 20.4545C273.098 19.6761 272.99 19 272.774 18.4261C272.558 17.8523 272.246 17.4091 271.837 17.0966C271.428 16.7841 270.93 16.6278 270.345 16.6278C269.749 16.6278 269.246 16.7898 268.837 17.1136C268.428 17.4375 268.118 17.8864 267.908 18.4602C267.697 19.0341 267.592 19.6989 267.592 20.4545C267.592 21.2159 267.697 21.8892 267.908 22.4744C268.124 23.054 268.433 23.5085 268.837 23.8381C269.246 24.1619 269.749 24.3239 270.345 24.3239ZM282.211 27L278.648 13.9091H282.322L284.35 22.7045H284.469L286.583 13.9091H290.188L292.336 22.6534H292.447L294.441 13.9091H298.106L294.552 27H290.708L288.458 18.767H288.296L286.046 27H282.211ZM303.776 27.2472C302.94 27.2472 302.196 27.1023 301.543 26.8125C300.889 26.517 300.372 26.0824 299.991 25.5085C299.616 24.929 299.429 24.2074 299.429 23.3438C299.429 22.6165 299.563 22.0057 299.83 21.5114C300.097 21.017 300.46 20.6193 300.92 20.3182C301.381 20.017 301.903 19.7898 302.489 19.6364C303.08 19.483 303.699 19.375 304.347 19.3125C305.108 19.233 305.722 19.1591 306.188 19.0909C306.653 19.017 306.991 18.9091 307.202 18.767C307.412 18.625 307.517 18.4148 307.517 18.1364V18.0852C307.517 17.5455 307.347 17.1278 307.006 16.8324C306.67 16.5369 306.193 16.3892 305.574 16.3892C304.92 16.3892 304.401 16.5341 304.014 16.8239C303.628 17.108 303.372 17.4659 303.247 17.8977L299.889 17.625C300.06 16.8295 300.395 16.142 300.895 15.5625C301.395 14.9773 302.04 14.5284 302.83 14.2159C303.625 13.8977 304.545 13.7386 305.591 13.7386C306.318 13.7386 307.014 13.8239 307.679 13.9943C308.349 14.1648 308.943 14.429 309.46 14.7869C309.983 15.1449 310.395 15.6051 310.696 16.1676C310.997 16.7244 311.148 17.392 311.148 18.1705V27H307.705V25.1847H307.602C307.392 25.5938 307.111 25.9545 306.759 26.267C306.406 26.5739 305.983 26.8153 305.489 26.9915C304.994 27.1619 304.423 27.2472 303.776 27.2472ZM304.815 24.7415C305.349 24.7415 305.821 24.6364 306.23 24.4261C306.639 24.2102 306.96 23.9205 307.193 23.5568C307.426 23.1932 307.543 22.7812 307.543 22.321V20.9318C307.429 21.0057 307.273 21.0739 307.074 21.1364C306.881 21.1932 306.662 21.2472 306.418 21.2983C306.173 21.3437 305.929 21.3864 305.685 21.4261C305.44 21.4602 305.219 21.4915 305.02 21.5199C304.594 21.5824 304.222 21.6818 303.903 21.8182C303.585 21.9545 303.338 22.1392 303.162 22.3722C302.986 22.5994 302.898 22.8835 302.898 23.2244C302.898 23.7188 303.077 24.0966 303.435 24.358C303.798 24.6136 304.259 24.7415 304.815 24.7415ZM313.964 27V13.9091H317.484V16.1932H317.621C317.859 15.3807 318.26 14.767 318.822 14.3523C319.385 13.9318 320.033 13.7216 320.766 13.7216C320.947 13.7216 321.143 13.733 321.354 13.7557C321.564 13.7784 321.749 13.8097 321.908 13.8494V17.071C321.737 17.0199 321.501 16.9744 321.2 16.9347C320.899 16.8949 320.624 16.875 320.374 16.875C319.839 16.875 319.362 16.9915 318.942 17.2244C318.527 17.4517 318.197 17.7699 317.953 18.179C317.714 18.5881 317.595 19.0597 317.595 19.5938V27H313.964ZM329.141 27.2557C327.795 27.2557 326.636 26.983 325.664 26.4375C324.698 25.8864 323.954 25.108 323.431 24.1023C322.908 23.0909 322.647 21.8949 322.647 20.5142C322.647 19.1676 322.908 17.9858 323.431 16.9688C323.954 15.9517 324.69 15.1591 325.638 14.5909C326.593 14.0227 327.712 13.7386 328.996 13.7386C329.86 13.7386 330.664 13.8778 331.408 14.1562C332.158 14.429 332.812 14.8409 333.369 15.392C333.931 15.9432 334.369 16.6364 334.681 17.4716C334.994 18.3011 335.15 19.2727 335.15 20.3864V21.3835H324.096V19.1335H331.732C331.732 18.6108 331.619 18.1477 331.391 17.7443C331.164 17.3409 330.849 17.0256 330.445 16.7983C330.048 16.5653 329.585 16.4489 329.056 16.4489C328.505 16.4489 328.016 16.5767 327.59 16.8324C327.17 17.0824 326.84 17.4205 326.602 17.8466C326.363 18.267 326.241 18.7358 326.235 19.2528V21.392C326.235 22.0398 326.354 22.5994 326.593 23.071C326.837 23.5426 327.181 23.9062 327.624 24.1619C328.067 24.4176 328.593 24.5455 329.201 24.5455C329.604 24.5455 329.974 24.4886 330.309 24.375C330.644 24.2614 330.931 24.0909 331.17 23.8636C331.408 23.6364 331.59 23.358 331.715 23.0284L335.073 23.25C334.903 24.0568 334.553 24.7614 334.025 25.3636C333.502 25.9602 332.826 26.4261 331.996 26.7614C331.173 27.0909 330.221 27.2557 329.141 27.2557Z" fill="black"/>
</svg>
